<svg width="1200" height="720" viewBox="0 0 1200 720" fill="none" xmlns="http://www.w3.org/2000/svg">
  <rect width="1200" height="720" rx="36" fill="#F3F8FF"/>
  <rect x="68" y="68" width="1064" height="584" rx="28" fill="white"/>
  <rect x="110" y="110" width="980" height="92" rx="18" fill="#E6EFFD"/>
  <rect x="140" y="138" width="188" height="36" rx="18" fill="#2F6FED"/>
  <rect x="140" y="246" width="282" height="268" rx="24" fill="#111827"/>
  <rect x="458" y="246" width="282" height="124" rx="24" fill="#D7EBFF"/>
  <rect x="776" y="246" width="272" height="124" rx="24" fill="#C7F4E7"/>
  <rect x="458" y="390" width="590" height="124" rx="24" fill="#EFF8FF"/>
  <circle cx="246" cy="332" r="34" fill="#17B890"/>
  <path d="M222 332H270" stroke="white" stroke-width="12" stroke-linecap="round"/>
  <path d="M246 308V356" stroke="white" stroke-width="12" stroke-linecap="round"/>
  <rect x="140" y="548" width="148" height="22" rx="11" fill="#475569" fill-opacity=".35"/>
  <rect x="458" y="286" width="200" height="24" rx="12" fill="#1F5AD1" fill-opacity=".8"/>
  <rect x="458" y="430" width="340" height="24" rx="12" fill="#2F6FED" fill-opacity=".72"/>
</svg>
