<svg width="1200" height="720" viewBox="0 0 1200 720" fill="none" xmlns="http://www.w3.org/2000/svg">
  <rect width="1200" height="720" rx="36" fill="#FFF9F0"/>
  <rect x="72" y="72" width="1056" height="576" rx="30" fill="white"/>
  <rect x="110" y="110" width="105" height="460" rx="26" fill="#111827"/>
  <rect x="250" y="110" width="396" height="220" rx="28" fill="#FFF1C7"/>
  <rect x="676" y="110" width="414" height="220" rx="28" fill="#FFE2B8"/>
  <rect x="250" y="362" width="260" height="208" rx="28" fill="#EFF8FF"/>
  <rect x="540" y="362" width="260" height="208" rx="28" fill="#E8FBF4"/>
  <rect x="830" y="362" width="260" height="208" rx="28" fill="#FCE7F3"/>
  <rect x="287" y="150" width="180" height="28" rx="14" fill="#B45309"/>
  <rect x="712" y="150" width="202" height="28" rx="14" fill="#D97706"/>
  <path d="M162 174C162 156.327 176.327 142 194 142C211.673 142 226 156.327 226 174V268C226 285.673 211.673 300 194 300C176.327 300 162 285.673 162 268V174Z" fill="#F59E0B"/>
  <path d="M178 148H210V116C210 107.163 202.837 100 194 100C185.163 100 178 107.163 178 116V148Z" fill="#FDE68A"/>
  <rect x="290" y="408" width="180" height="120" rx="24" fill="white"/>
  <rect x="580" y="408" width="180" height="120" rx="24" fill="white"/>
  <rect x="870" y="408" width="180" height="120" rx="24" fill="white"/>
</svg>
